# xmcd
#
# Track frame offsets: 
#        187
#        31787
#        52857
#        83077
#        114562
#        140252
#        170402
#        198710
#        241402
#        275320
#        297227
#
# Disc length: 4280 seconds
#
# Revision: 3
# Processed by: cddbd v1.5PL3 Copyright (c) Steve Scherf et al.
# Submitted via: ExactAudioCopy v0.95a2
#
DISCID=9310b60b
DTITLE=Christian McBride - A Family Affair
DYEAR=1998
DGENRE=Jazz
TTITLE0=I'm Coming Home
TTITLE1=A Dream Of You
TTITLE2=Family Affair
TTITLE3=Theme From Our Fairytale
TTITLE4=Or So You Thought
TTITLE5=Summer Soft
TTITLE6=Brown Funk(For Ray)
TTITLE7=Open Sesame
TTITLE8=Wayne's World
TTITLE9=I'll Write A Song For You
TTITLE10=Freedom Jazz Dance
EXTD=
EXTT0=
EXTT1=
EXTT2=
EXTT3=
EXTT4=
EXTT5=
EXTT6=
EXTT7=
EXTT8=
EXTT9=
EXTT10=
PLAYORDER=
